<?xml version="1.0" encoding="UTF-8" standalone="no"?>
<svg
   xmlns:dc="http://purl.org/dc/elements/1.1/"
   xmlns:cc="http://creativecommons.org/ns#"
   xmlns:rdf="http://www.w3.org/1999/02/22-rdf-syntax-ns#"
   xmlns:svg="http://www.w3.org/2000/svg"
   xmlns="http://www.w3.org/2000/svg"
   xmlns:sodipodi="http://sodipodi.sourceforge.net/DTD/sodipodi-0.dtd"
   xmlns:inkscape="http://www.inkscape.org/namespaces/inkscape"
   inkscape:version="1.0 (4035a4fb49, 2020-05-01)"
   sodipodi:docname="decrease.svg"
   id="svg15"
   version="1.1"
   width="512"
   viewBox="0 0 58 60"
   height="512">
  <metadata
     id="metadata21">
    <rdf:RDF>
      <cc:Work
         rdf:about="">
        <dc:format>image/svg+xml</dc:format>
        <dc:type
           rdf:resource="http://purl.org/dc/dcmitype/StillImage" />
      </cc:Work>
    </rdf:RDF>
  </metadata>
  <defs
     id="defs19" />
  <sodipodi:namedview
     inkscape:current-layer="svg15"
     inkscape:window-maximized="1"
     inkscape:window-y="19"
     inkscape:window-x="0"
     inkscape:cy="260.76288"
     inkscape:cx="164.89352"
     inkscape:zoom="0.78444659"
     showgrid="false"
     id="namedview17"
     inkscape:window-height="717"
     inkscape:window-width="1366"
     inkscape:pageshadow="2"
     inkscape:pageopacity="0"
     guidetolerance="10"
     gridtolerance="10"
     objecttolerance="10"
     borderopacity="1"
     bordercolor="#666666"
     pagecolor="#ffffff" />
  <g
     transform="translate(0.58951453,-29.565818)"
     fill-rule="evenodd"
     fill="none"
     id="Page-1">
    <g
       fill-rule="nonzero"
       fill="#000000"
       id="054---Cash">
      <path
         style="stroke-width:1.0577"
         d="M 32.600426,60.622428 H 22.023384 c -1.752463,0 -3.173113,1.420652 -3.173113,3.173113 v 10.577043 h -2.115409 c -0.855463,1.82e-4 -1.626611,0.515583 -1.953957,1.305938 -0.327346,0.790355 -0.146449,1.70007 0.458363,2.305065 L 25.81631,88.560633 c 0.826067,0.825813 2.165121,0.825813 2.991189,0 L 39.384542,77.983587 c 0.604811,-0.604995 0.785708,-1.51471 0.458362,-2.305065 -0.327347,-0.790355 -1.098494,-1.305756 -1.953956,-1.305938 H 35.773539 V 63.795541 c 0,-1.752461 -1.420651,-3.173113 -3.173113,-3.173113 z M 37.888948,76.487993 27.311905,87.065032 16.724285,76.487993 h 3.18369 c 0.584153,0 1.057703,-0.47355 1.057703,-1.057705 V 63.795541 c 0,-0.584155 0.473551,-1.057705 1.057706,-1.057705 h 10.577042 c 0.584154,0 1.057705,0.47355 1.057705,1.057705 v 11.634747 c 0,0.584155 0.47355,1.057705 1.057704,1.057705 z"
         id="Shape" />
      <path
         style="stroke-width:1.0577"
         d="M 41.999561,65.772644 V 79.5228 c 0,0.584154 0.47355,1.057704 1.057704,1.057704 0.584153,0 1.057704,-0.47355 1.057704,-1.057704 V 65.772644 c 0,-0.584154 -0.473551,-1.057704 -1.057704,-1.057704 -0.584154,0 -1.057704,0.47355 -1.057704,1.057704 z"
         id="path3" />
      <path
         style="stroke-width:1.0577"
         d="m 47.408286,60.832668 v 13.750156 c 0,0.584154 0.473551,1.057704 1.057705,1.057704 0.584153,0 1.057704,-0.47355 1.057704,-1.057704 V 60.832668 c 0,-0.584154 -0.473551,-1.057704 -1.057704,-1.057704 -0.584154,0 -1.057705,0.47355 -1.057705,1.057704 z"
         id="path5" />
      <path
         style="stroke-width:1.0577"
         d="M 10.50884,65.772644 V 79.5228 c 0,0.584154 0.47355,1.057704 1.057705,1.057704 0.584152,0 1.057704,-0.47355 1.057704,-1.057704 V 65.772644 c 0,-0.584154 -0.473552,-1.057704 -1.057704,-1.057704 -0.584155,0 -1.057705,0.47355 -1.057705,1.057704 z"
         id="path7" />
      <path
         style="stroke-width:1.0577"
         d="m 5.1001147,60.832668 v 13.750156 c 0,0.584154 0.4735501,1.057704 1.0577047,1.057704 0.5841528,0 1.0577046,-0.47355 1.0577046,-1.057704 V 60.832668 c 0,-0.584154 -0.4735518,-1.057704 -1.0577046,-1.057704 -0.5841546,0 -1.0577047,0.47355 -1.0577047,1.057704 z"
         id="path9" />
      <path
         d="m 0,46.5 v 7 c 0,4.222 7.729,6.5 15,6.5 5.714,0 11.694,-1.413 14,-4.064 2.306,2.651 8.286,4.064 14,4.064 7.271,0 15,-2.278 15,-6.5 v -7 C 58,42.471 50.963,40.218 44,40.019 V 36.5 C 44,32.278 36.271,30 29,30 c -1.957228,-0.0052 -3.911329,0.156674 -5.841,0.484 -0.544277,0.09444 -0.908941,0.612223 -0.8145,1.1565 0.09444,0.544277 0.612223,0.908941 1.1565,0.8145 C 25.317672,32.146803 27.157379,31.994581 29,32 c 7.44,0 13,2.376 13,4.5 0,0.856 -0.958,1.8 -2.629,2.6 C 36.08438,40.449823 32.551687,41.097024 29,41 25.448313,41.097024 21.91562,40.449823 18.629,39.1 16.958,38.3 16,37.356 16,36.5 c 0,-0.9 1.089,-1.921 2.913,-2.725 0.333861,-0.139481 0.566336,-0.44843 0.607891,-0.807862 C 19.562447,32.607706 19.4066,32.253862 19.113373,32.04188 18.820146,31.829899 18.435281,31.792849 18.107,31.945 15.458,33.111 14,34.729 14,36.5 v 3.519 C 7.037,40.218 0,42.471 0,46.5 Z M 15,58 C 7.56,58 2,55.624 2,53.5 v -3.645 c 0.5543624,0.405983 1.1475948,0.756027 1.771,1.045 3.554741,1.478287 7.380269,2.193721 11.229,2.1 3.85111,0.09509 7.679204,-0.620375 11.236,-2.1 0.554966,-0.262109 1.086849,-0.570534 1.59,-0.922 H 28 V 53.5 C 28,55.624 22.44,58 15,58 Z m 28,0 C 35.56,58 30,55.624 30,53.5 v -3.519 h 0.174 c 0.506466,0.352919 1.041681,0.662675 1.6,0.926 3.554329,1.475477 7.378772,2.188515 11.226,2.093 3.848731,0.09372 7.674259,-0.621713 11.229,-2.1 0.623405,-0.288973 1.216638,-0.639017 1.771,-1.045 V 53.5 C 56,55.624 50.44,58 43,58 Z M 56,46.5 c 0,0.856 -0.958,1.8 -2.629,2.6 C 50.08438,50.449823 46.551687,51.097023 43,51 39.93632,51.045577 36.886085,50.585745 33.972,49.639 39.406,48.847 44,46.754 44,43.5 v -1.48 c 6.931,0.201 12,2.453 12,4.48 z M 17.771,40.9 c 3.554741,1.478287 7.380269,2.193721 11.229,2.1 3.848731,0.09372 7.674259,-0.621713 11.229,-2.1 0.623405,-0.288973 1.216638,-0.639017 1.771,-1.045 V 43.5 C 42,45.624 36.44,48 29,48 21.56,48 16,45.624 16,43.5 v -3.645 c 0.554362,0.405983 1.147595,0.756027 1.771,1.045 z M 14,42.02 v 1.48 c 0,3.253 4.593,5.347 10.027,6.139 C 21.113247,50.585689 18.063349,51.045522 15,51 11.448313,51.097023 7.9156201,50.449823 4.629,49.1 2.958,48.3 2,47.356 2,46.5 2,44.473 7.069,42.221 14,42.02 Z"
         id="path11" />
    </g>
  </g>
</svg>
