<?xml version="1.0" encoding="UTF-8" standalone="no"?>
<svg
   xmlns:dc="http://purl.org/dc/elements/1.1/"
   xmlns:cc="http://creativecommons.org/ns#"
   xmlns:rdf="http://www.w3.org/1999/02/22-rdf-syntax-ns#"
   xmlns:svg="http://www.w3.org/2000/svg"
   xmlns="http://www.w3.org/2000/svg"
   xmlns:xlink="http://www.w3.org/1999/xlink"
   xmlns:sodipodi="http://sodipodi.sourceforge.net/DTD/sodipodi-0.dtd"
   xmlns:inkscape="http://www.inkscape.org/namespaces/inkscape"
   id="Capa_1"
   enable-background="new 0 0 512 512"
   height="512"
   viewBox="0 0 512 512"
   width="512"
   version="1.1"
   sodipodi:docname="greedy.svg"
   inkscape:version="1.0 (4035a4fb49, 2020-05-01)">
  <metadata
     id="metadata130">
    <rdf:RDF>
      <cc:Work
         rdf:about="">
        <dc:format>image/svg+xml</dc:format>
        <dc:type
           rdf:resource="http://purl.org/dc/dcmitype/StillImage" />
        <dc:title></dc:title>
      </cc:Work>
    </rdf:RDF>
  </metadata>
  <defs
     id="defs128" />
  <sodipodi:namedview
     inkscape:document-rotation="0"
     pagecolor="#00ffff"
     bordercolor="#666666"
     borderopacity="1"
     objecttolerance="10"
     gridtolerance="10"
     guidetolerance="10"
     inkscape:pageopacity="0"
     inkscape:pageshadow="2"
     inkscape:window-width="1366"
     inkscape:window-height="717"
     id="namedview126"
     showgrid="false"
     inkscape:zoom="0.78444659"
     inkscape:cx="69.963694"
     inkscape:cy="219.13949"
     inkscape:window-x="0"
     inkscape:window-y="19"
     inkscape:window-maximized="1"
     inkscape:current-layer="Capa_1" />
  <radialGradient
     id="SVGID_1_"
     cx="72.638"
     cy="63.551"
     gradientTransform="matrix(0.707,-0.707,0.553,0.553,-13.887,79.752)"
     gradientUnits="userSpaceOnUse"
     r="226.024">
    <stop
       offset=".0132"
       stop-color="#fffbe4"
       id="stop2" />
    <stop
       offset=".6064"
       stop-color="#f9efaf"
       id="stop4" />
    <stop
       offset=".7207"
       stop-color="#f9eeab"
       id="stop6" />
    <stop
       offset=".8394"
       stop-color="#f8ec9e"
       id="stop8" />
    <stop
       offset=".9597"
       stop-color="#f7e98a"
       id="stop10" />
    <stop
       offset="1"
       stop-color="#f6e781"
       id="stop12" />
  </radialGradient>
  <radialGradient
     id="SVGID_2_"
     cx="-18.307"
     cy="255.964"
     gradientTransform="matrix(1,0,0,0.66,0,86.958)"
     gradientUnits="userSpaceOnUse"
     r="405.566">
    <stop
       offset="0"
       stop-color="#f6e266"
       id="stop15" />
    <stop
       offset=".1349"
       stop-color="#f5dc60"
       id="stop17" />
    <stop
       offset=".3156"
       stop-color="#f0cb51"
       id="stop19" />
    <stop
       offset=".5216"
       stop-color="#e9af37"
       id="stop21" />
    <stop
       offset=".5854"
       stop-color="#e7a52e"
       id="stop23" />
    <stop
       offset="1"
       stop-color="#e7a52e"
       id="stop25" />
  </radialGradient>
  <radialGradient
     id="SVGID_3_"
     cx="334.494"
     cy="267.854"
     gradientUnits="userSpaceOnUse"
     r="373.342">
    <stop
       offset="0"
       stop-color="#f6e266"
       id="stop28" />
    <stop
       offset=".377"
       stop-color="#f4dd45"
       id="stop30" />
    <stop
       offset=".4963"
       stop-color="#f2d340"
       id="stop32" />
    <stop
       offset=".6976"
       stop-color="#ecb934"
       id="stop34" />
    <stop
       offset=".8996"
       stop-color="#e49824"
       id="stop36" />
  </radialGradient>
  <radialGradient
     id="SVGID_4_"
     cx="433.125"
     cy="3100.909"
     gradientTransform="matrix(0.931,0,0,0.112,-147.994,114.878)"
     gradientUnits="userSpaceOnUse"
     r="234.348">
    <stop
       offset="0"
       stop-color="#ecb780"
       id="stop39" />
    <stop
       offset=".3347"
       stop-color="#faddb9"
       id="stop41" />
    <stop
       offset=".4962"
       stop-color="#ffecd0"
       id="stop43" />
    <stop
       offset=".888"
       stop-color="#fff"
       id="stop45" />
  </radialGradient>
  <radialGradient
     id="SVGID_5_"
     cx="272.892"
     cy="359.298"
     gradientTransform="matrix(1,0,0,0.57,0,154.621)"
     gradientUnits="userSpaceOnUse"
     r="203.816">
    <stop
       offset="0"
       stop-color="#d8aa8b"
       id="stop48" />
    <stop
       offset=".1426"
       stop-color="#cd9975"
       id="stop50" />
    <stop
       offset=".4378"
       stop-color="#b97a4d"
       id="stop52" />
    <stop
       offset=".5905"
       stop-color="#b16e3d"
       id="stop54" />
    <stop
       offset=".6258"
       stop-color="#ad6b3b"
       id="stop56" />
    <stop
       offset="1"
       stop-color="#804f2b"
       id="stop58" />
  </radialGradient>
  <radialGradient
     id="SVGID_6_"
     cx="245.249"
     cy="303.917"
     gradientTransform="matrix(-0.963,0.271,-0.21,-0.745,545.081,463.819)"
     gradientUnits="userSpaceOnUse"
     r="95.681">
    <stop
       offset="0"
       stop-color="#d8f1a0"
       id="stop61" />
    <stop
       offset=".1337"
       stop-color="#d0ec8e"
       id="stop63" />
    <stop
       offset=".3992"
       stop-color="#badf61"
       id="stop65" />
    <stop
       offset=".5713"
       stop-color="#aad540"
       id="stop67" />
    <stop
       offset=".6661"
       stop-color="#a0c93d"
       id="stop69" />
    <stop
       offset=".8399"
       stop-color="#90b738"
       id="stop71" />
  </radialGradient>
  <radialGradient
     id="SVGID_7_"
     cx="464.667"
     cy="319.479"
     gradientTransform="matrix(-0.79,0.271,-0.172,-0.745,664.424,431.485)"
     gradientUnits="userSpaceOnUse"
     r="139.947">
    <stop
       offset=".0052"
       stop-color="#d8f1a0"
       id="stop74" />
    <stop
       offset=".1672"
       stop-color="#d0ec8e"
       id="stop76" />
    <stop
       offset=".4889"
       stop-color="#badf61"
       id="stop78" />
    <stop
       offset=".6975"
       stop-color="#aad540"
       id="stop80" />
    <stop
       offset="1"
       stop-color="#9dc63d"
       id="stop82" />
  </radialGradient>
  <linearGradient
     id="lg1">
    <stop
       offset="0"
       stop-color="#c6865c"
       id="stop85" />
    <stop
       offset=".4963"
       stop-color="#c17d4f"
       id="stop87" />
    <stop
       offset=".7528"
       stop-color="#a86b3f"
       id="stop89" />
    <stop
       offset="1"
       stop-color="#8b572e"
       id="stop91" />
  </linearGradient>
  <radialGradient
     id="SVGID_8_"
     cx="255.493"
     cy="210.263"
     gradientTransform="matrix(1,0,0,1.839,0,-176.398)"
     gradientUnits="userSpaceOnUse"
     r="75.016"
     xlink:href="#lg1" />
  <radialGradient
     id="SVGID_9_"
     cx="395.492"
     cy="210.263"
     gradientTransform="matrix(1,0,0,1.839,0,-176.398)"
     gradientUnits="userSpaceOnUse"
     r="75.016"
     xlink:href="#lg1" />
  <radialGradient
     id="SVGID_10_"
     cx="292.197"
     cy="367.392"
     gradientTransform="matrix(1,0,0,1.507,0,-186.229)"
     gradientUnits="userSpaceOnUse"
     r="69.318">
    <stop
       offset="0"
       stop-color="#9dc63d"
       id="stop96" />
    <stop
       offset=".4963"
       stop-color="#90b738"
       id="stop98" />
    <stop
       offset="1"
       stop-color="#86a533"
       id="stop100" />
  </radialGradient>
  <g
     transform="matrix(1,0,0,1.0631485,2,-8.8744346)"
     id="g123">
    <path
       style="fill:url(#SVGID_1_)"
       d="M 293.01,23.082 H 218.99 C 98.045,23.082 0,121.127 0,242.072 l 89.659,24.005 z"
       fill="url(#SVGID_1_)"
       id="path103" />
    <path
       style="fill:url(#SVGID_2_)"
       d="M 74.02,242.072 H 0 c 0,120.945 98.045,218.99 218.99,218.99 h 74.02 z"
       fill="url(#SVGID_2_)"
       id="path105" />
    <circle
       style="fill:url(#SVGID_3_)"
       cx="293.01001"
       cy="242.07201"
       fill="url(#SVGID_3_)"
       r="218.99001"
       id="circle107" />
    <path
       style="fill:url(#SVGID_4_)"
       d="m 258.279,488.918 c 125.572,0 227.368,-12.472 227.368,-27.856 H 30.911 c 0,15.385 101.796,27.856 227.368,27.856 z"
       fill="url(#SVGID_4_)"
       id="path109" />
    <path
       style="fill:url(#SVGID_5_)"
       d="m 421.964,257.623 c 0,48.743 -27.043,91.169 -66.944,113.094 -18.4,10.11 -39.533,9.422 -62.01,9.422 -46.15,0 -86.638,-17.805 -109.423,-54.251 -12.377,-19.798 -19.531,-43.196 -19.531,-68.266 h 257.908 z"
       fill="url(#SVGID_5_)"
       id="path111" />
    <path
       style="fill:url(#SVGID_6_)"
       d="m 183.587,325.888 c 17.183,27.484 44.433,48.029 76.587,56.47 l 7.743,-60.259 v -49.43 H 250 c -21.947,0 -42.238,11.669 -53.275,30.639 z"
       fill="url(#SVGID_6_)"
       id="path113" />
    <path
       style="fill:url(#SVGID_7_)"
       d="m 301.753,272.623 h -46.01 c -20.527,0 -36.284,18.198 -33.349,38.514 l 10.163,70.342 c 4.341,30.048 30.093,52.347 60.454,52.347 30.36,0 56.112,-22.299 60.454,-52.347 l 6.084,-42.111 c 5.085,-35.208 -22.223,-66.745 -57.796,-66.745 z"
       fill="url(#SVGID_7_)"
       id="path115" />
    <path
       style="fill:url(#SVGID_8_)"
       d="m 232.811,161.67 h -19.393 c -5.255,0 -9.53,-4.275 -9.53,-9.53 0,-5.255 4.275,-9.53 9.53,-9.53 h 19.393 c 5.255,0 9.53,4.275 9.53,9.53 h 20 c 0,-16.182 -13.083,-29.365 -29.227,-29.528 v -12.293 h -20 v 12.293 c -16.144,0.164 -29.227,13.346 -29.227,29.528 0,16.283 13.247,29.53 29.53,29.53 h 19.393 c 5.255,0 9.53,4.275 9.53,9.53 0,5.255 -4.275,9.53 -9.53,9.53 h -19.393 c -5.255,0 -9.53,-4.275 -9.53,-9.53 h -20 c 0,16.182 13.083,29.365 29.227,29.528 v 12.293 h 20 v -12.293 c 16.144,-0.164 29.227,-13.346 29.227,-29.528 0,-16.283 -13.247,-29.53 -29.53,-29.53 z"
       fill="url(#SVGID_8_)"
       id="path117" />
    <path
       style="fill:url(#SVGID_9_)"
       d="m 372.809,161.67 h -19.393 c -5.255,0 -9.53,-4.275 -9.53,-9.53 0,-5.255 4.275,-9.53 9.53,-9.53 h 19.393 c 5.255,0 9.53,4.275 9.53,9.53 h 20 c 0,-16.182 -13.083,-29.365 -29.227,-29.528 v -12.293 h -20 v 12.293 c -16.144,0.164 -29.227,13.346 -29.227,29.528 0,16.283 13.247,29.53 29.53,29.53 h 19.393 c 5.255,0 9.53,4.275 9.53,9.53 0,5.255 -4.275,9.53 -9.53,9.53 h -19.393 c -5.255,0 -9.53,-4.275 -9.53,-9.53 h -20 c 0,16.182 13.083,29.365 29.227,29.528 v 12.293 h 20 v -12.293 c 16.144,-0.164 29.227,-13.346 29.227,-29.528 10e-4,-16.283 -13.246,-29.53 -29.53,-29.53 z"
       fill="url(#SVGID_9_)"
       id="path119" />
    <path
       style="fill:url(#SVGID_10_)"
       d="m 302.903,339.179 h -16.078 c -4.357,0 -7.902,-3.545 -7.902,-7.902 0,-4.357 3.545,-7.902 7.902,-7.902 h 16.078 c 4.357,0 7.902,3.545 7.902,7.902 h 16.582 c 0,-13.416 -10.847,-24.346 -24.232,-24.482 v -10.193 h -16.582 v 10.193 c -13.385,0.136 -24.232,11.066 -24.232,24.482 0,13.5 10.983,24.484 24.484,24.484 h 16.078 c 4.357,0 7.902,3.545 7.902,7.902 0,4.357 -3.545,7.902 -7.902,7.902 h -16.078 c -4.357,0 -7.902,-3.545 -7.902,-7.902 h -16.582 c 0,13.416 10.847,24.346 24.232,24.482 v 10.193 h 16.582 v -10.193 c 13.385,-0.136 24.232,-11.066 24.232,-24.482 0,-13.501 -10.984,-24.484 -24.484,-24.484 z"
       fill="url(#SVGID_10_)"
       id="path121" />
  </g>
  <g
     transform="matrix(0.05254654,0,0,-0.05067397,-5.9229533,252.92289)"
     id="g961"
     style="fill:#945d33;fill-opacity:1">
    <path
       d="M 4195.6,5005.3 C 3602.1,4976.6 3159.9,4867.5 2652.6,4622.4 1259,3950.4 275,2365.4 116.1,535.2 18.5,-600 368.8,-1919 1035,-2924 c 706.4,-1062.5 1700,-1686.5 2892.6,-1812.9 99.5,-11.5 522.6,-24.9 938,-32.5 706.4,-11.5 775.3,-9.6 1062.5,28.7 488.2,67 758.1,130.2 1158.2,273.8 1600.4,578.1 2626.5,2100 2796.9,4150.3 107.2,1296 -304.4,2726.1 -1077.8,3756 -670,888.3 -1571.7,1416.6 -2647.6,1546.8 -218.2,26.7 -1544.8,40.1 -1962.2,19.1 z M 6066,4632 c 786.8,-111 1468.3,-449.9 2061.8,-1024.2 1600.4,-1544.9 1872.2,-4261.4 622.1,-6194.9 -591.5,-917 -1426.2,-1525.8 -2377.6,-1738.3 -754.3,-170.4 -1521.9,-80.4 -2232.2,258.4 -842.3,402 -1520,1129.5 -1956.5,2094.3 -758.1,1671.2 -551.3,3671.7 520.7,5094.1 641.3,850 1579.3,1409 2544.2,1518.1 229.8,26.9 606.9,23.1 817.5,-7.5 z m -1969.9,-57.5 c -5.7,-5.7 -80.4,-45.9 -168.5,-88.1 -155.1,-74.7 -160.8,-74.7 -304.4,-63.2 -237.4,21.1 -239.3,34.5 -19.1,82.3 109.1,23 264.2,47.9 342.7,57.4 78.5,9.5 147.4,17.2 151.2,19.1 3.8,0.2 3.8,-1.7 -1.9,-7.5 z M 3318.9,4297 c 103.4,-9.6 191.4,-19.1 197.2,-19.1 7.7,0 -53.6,-44 -132.1,-97.6 l -147.4,-97.6 -281.4,30.6 c -155.1,17.2 -289.1,30.6 -300.6,32.5 -9.6,0 67,44 172.3,93.8 137.8,68.9 206.7,91.9 248.9,86.2 32.5,-5.9 141.6,-17.4 243.1,-28.8 z m -467.1,-327.4 c 107.2,-13.4 193.4,-28.7 191.4,-34.5 -3.8,-5.8 -55.5,-57.4 -114.9,-114.9 l -109.1,-101.5 -350.3,40.2 c -191.4,23 -350.3,44 -352.2,45.9 -3.8,3.8 61.3,51.7 141.7,107.2 l 147.4,101.5 124.4,-11.5 c 68.9,-5.6 212.4,-20.9 321.6,-32.4 z m -478.6,-354.2 c 158.9,-19.1 291,-38.3 291,-44 -1.9,-5.8 -45.9,-61.3 -101.5,-122.5 l -99.6,-111 -335,40.2 c -480.5,57.4 -448,38.3 -314,174.2 107.2,111 116.8,114.9 189.5,105.3 42.2,-3.9 208.8,-24.9 369.6,-42.2 z m -388.6,-373.3 c 189.5,-23 348.4,-44 352.2,-47.9 3.8,-3.8 -24.9,-55.5 -65.1,-112.9 -55.5,-82.3 -82.3,-105.3 -122.5,-105.3 -67,0 -750.4,90 -760,101.5 -5.7,3.8 32.5,55.5 82.3,114.9 67,80.4 99.5,105.3 128.3,99.6 22.9,-3.9 195.2,-26.9 384.8,-49.9 z m -260.4,-371.3 c 193.3,-26.8 356.1,-49.8 359.9,-55.5 3.8,-3.8 -28.7,-72.8 -72.7,-153.2 -67,-118.7 -88.1,-143.6 -120.6,-135.9 -23,5.7 -212.5,32.5 -423.1,59.3 -210.6,28.7 -386.7,53.6 -388.6,55.5 -3.8,3.8 36.4,70.8 88.1,149.3 86.1,126.3 101.5,139.7 151.2,134 28.7,-3.8 212.4,-28.7 405.8,-53.5 z M 1483,2428.5 c 208.7,-28.7 375.2,-57.4 373.3,-65.1 -111,-258.4 -139.7,-306.3 -180,-306.3 -57.4,0 -836.6,112.9 -846.1,122.5 -3.8,5.8 28.7,78.5 74.7,164.6 80.4,149.3 86.1,155.1 141.7,145.5 30.5,-5.6 227.7,-32.4 436.4,-61.2 z M 1641.9,1904 c 34.5,0 -59.3,-275.7 -93.8,-283.3 -28.7,-5.8 -794.5,103.4 -861.5,122.5 -38.3,11.5 -34.5,34.5 34.5,191.4 l 44,97.6 426.9,-63.2 c 235.5,-36.3 438.4,-65 449.9,-65 z M 1081,1528.8 c 245,-38.3 446,-68.9 448,-70.8 1.9,-1.9 -11.5,-68.9 -30.6,-147.4 -26.8,-122.5 -38.3,-143.6 -68.9,-139.7 -130.2,17.2 -899.8,141.7 -905.5,147.4 -13.4,15.3 74.7,279.5 93.8,279.5 11.4,-0.1 220.1,-30.7 463.2,-69 z m 354.1,-515 c 5.8,-5.7 -32.5,-283.3 -42.1,-291 -3.8,-3.8 -222.1,28.7 -486.2,72.7 -459.4,76.6 -480.5,82.3 -472.9,120.6 3.8,23 17.2,88.1 28.7,147.4 l 21.1,105.3 472.8,-76.6 c 260.4,-40.1 474.8,-76.5 478.6,-78.4 z M 1377.7,564 c 1.9,0 3.8,-68.9 3.8,-153.2 0,-132.1 -3.8,-153.1 -32.5,-153.1 -19.1,0 -243.1,36.4 -497.7,80.4 l -465.2,80.4 v 68.9 c 0,40.2 5.7,109.1 11.5,157 l 11.5,86.2 482.4,-82.3 C 1155.6,602.2 1373.9,564 1377.7,564 Z M 1132.7,135.1 1372,93 l 5.7,-128.3 c 3.8,-84.2 -1.9,-128.3 -15.3,-128.3 -11.5,0 -233.6,38.3 -493.9,86.1 -258.5,48 -478.6,86.3 -486.3,86.3 -7.7,0 -15.3,59.3 -15.3,132.1 v 130.2 l 264.2,-45.9 c 143.6,-26.9 369.5,-67.1 501.6,-90.1 z M 891.5,-232.4 c 264.2,-49.8 486.2,-93.8 493.9,-101.5 7.7,-5.7 19.1,-63.2 24.9,-128.3 l 13.4,-116.8 -513.1,95.7 c -283.3,53.6 -516.9,97.6 -516.9,97.6 -1.9,1.9 -7.7,55.5 -15.3,122.5 -9.6,86.1 -7.7,118.7 9.6,118.7 13.4,0.1 239.3,-40.1 503.5,-87.9 z m 57.4,-409.7 c 271.8,-51.7 495.8,-97.6 497.7,-99.6 11.5,-17.2 67,-310.1 61.3,-317.8 -7.7,-7.7 -1024.2,185.7 -1047.2,199.1 -7.7,3.8 -19.1,47.9 -24.9,97.6 -7.7,51.7 -19.1,120.6 -24.9,155 -7.7,44 -1.9,61.3 15.3,61.3 15.4,0.1 248.9,-42 522.7,-95.6 z m 84.2,-486.2 c 287.2,-55.5 524.5,-105.3 526.5,-109.1 15.3,-23 88.1,-275.7 80.4,-281.4 -5.7,-7.7 -1066.3,204.8 -1077.8,216.3 -15.3,13.4 -74.7,277.6 -65.1,277.6 7.7,-0.1 248.9,-46 536,-103.4 z m 673.9,-578.2 c 17.2,-19.1 116.8,-260.3 109.1,-268 -7.7,-9.6 -1095,224 -1106.5,237.4 -15.3,15.3 -93.8,227.8 -93.8,250.8 0,19.1 1068.2,-197.2 1091.2,-220.2 z m -337,-333.1 c 292.9,-61.3 534.1,-116.8 537.9,-118.7 30.6,-44 162.7,-308.2 158.9,-314 -7.7,-5.7 -1024.2,206.8 -1110.3,233.6 -24.9,7.7 -168.5,266.1 -168.5,304.4 0.1,17.2 53.7,7.7 582,-105.3 z m 913.2,-756.2 c 49.8,-72.7 90,-134 88.1,-137.8 -3.8,-1.9 -268,53.6 -587.7,126.4 l -583.9,130.2 -80.4,122.5 c -45.9,67 -82.3,128.3 -82.3,134 0,5.7 260.4,-45.9 576.2,-116.8 l 576.2,-126.3 z m -312.1,-208.6 c 555.2,-126.3 560.9,-126.3 620.3,-193.3 97.6,-112.9 134,-162.7 116.8,-162.7 -9.6,0 -279.5,59.3 -599.2,134 l -583.9,132.1 -90,101.5 c -97.6,109.1 -111,137.8 -57.4,122.5 17.2,-5.9 285.2,-65.2 593.4,-134.1 z m 373.3,-432.7 591.6,-135.9 149.3,-128.3 c 82.3,-70.8 147.4,-130.2 145.5,-132.1 0,0 -285.2,65.1 -631.7,145.5 l -627.9,147.4 -137.8,128.3 c -74.7,70.8 -122.5,124.4 -107.2,118.7 15.2,-3.8 294.7,-68.9 618.2,-143.6 z m 635.6,-486.2 555.2,-122.5 210.6,-126.4 c 114.9,-68.9 202.9,-126.3 195.3,-126.3 -7.7,0 -281.4,55.5 -608.8,124.4 l -597.3,124.4 -183.8,107.2 c -101.5,57.4 -204.8,122.5 -231.6,141.7 l -47.9,36.4 76.6,-19.1 c 42.1,-9.6 327.3,-72.8 631.7,-139.8 z"
       id="path957"
       style="fill:#945d33;fill-opacity:1" />
  </g>
</svg>
