<svg height="512pt" viewBox="0 -21 512 512" width="512pt" xmlns="http://www.w3.org/2000/svg"><path d="m452.578125 230.039062c0 122.90625-99.632813 222.542969-222.539063 222.542969s-222.539062-99.636719-222.539062-222.542969c0-122.902343 99.632812-222.539062 222.539062-222.539062s222.539063 99.636719 222.539063 222.539062zm0 0" fill="#feb836"/><path d="m230.039062 7.5c-6.828124 0-13.582031.324219-20.253906.925781 113.410156 10.234375 202.285156 105.539063 202.285156 221.613281 0 116.078126-88.875 211.378907-202.285156 221.613282 6.671875.601562 13.425782.925781 20.253906.925781 122.90625 0 222.539063-99.632813 222.539063-222.539063 0-122.902343-99.632813-222.539062-222.539063-222.539062zm0 0" fill="#d1972c"/><path d="m386.703125 230.039062c0 86.523438-70.140625 156.664063-156.664063 156.664063-86.523437 0-156.660156-70.140625-156.660156-156.664063 0-86.519531 70.136719-156.660156 156.660156-156.660156 86.523438 0 156.664063 70.140625 156.664063 156.660156zm0 0" fill="#ffdc45"/><path d="m230.039062 73.378906c-6.863281 0-13.625.445313-20.253906 1.300782 76.953125 9.933593 136.40625 75.703124 136.40625 155.359374 0 79.660157-59.453125 145.429688-136.40625 155.363282 6.628906.855468 13.390625 1.300781 20.253906 1.300781 86.523438 0 156.664063-70.140625 156.664063-156.664063 0-86.519531-70.140625-156.660156-156.664063-156.660156zm0 0" fill="#d6b93a"/><path d="m504.5 374.601562c0 48.464844-39.285156 87.75-87.75 87.75s-87.75-39.285156-87.75-87.75c0-48.460937 39.285156-87.75 87.75-87.75s87.75 39.289063 87.75 87.75zm0 0" fill="#17ace8"/><path d="m468.085938 303.433594c10.429687 14.433594 16.582031 32.164062 16.582031 51.335937 0 48.460938-39.289063 87.75-87.75 87.75-19.171875 0-36.902344-6.152343-51.335938-16.582031 15.9375 22.054688 41.875 36.414062 71.167969 36.414062 48.464844 0 87.75-39.289062 87.75-87.75 0-29.292968-14.355469-55.230468-36.414062-71.167968zm0 0" fill="#1391c4"/><path d="m453.082031 286.554688c11.703125-46.351563 9.054688-97.292969-10.355469-144.277344-1.582031-3.828125-5.964843-5.648438-9.792968-4.066406-3.832032 1.578124-5.652344 5.964843-4.070313 9.792968 17.871094 43.265625 20.664063 90.507813 9.917969 133.914063-17.695312-4.195313-36.5625-3.265625-53.941406 2.933593 37.660156-105.941406-41.164063-218.972656-154.800782-218.972656-110.859374 0-190.445312 108.449219-156.273437 214.53125 1.265625 3.945313 5.492187 6.109375 9.4375 4.839844 3.941406-1.269531 6.109375-5.496094 4.835937-9.4375-31-96.253906 41.136719-194.933594 142-194.933594 110.617188 0 181.890626 116.179688 134.261719 214.207032-17.585937 11.621093-30.859375 28.75-37.667969 48.613281-72.015624 61.253906-183.585937 41.113281-228.585937-44.136719-1.933594-3.664062-6.472656-5.066406-10.132813-3.132812-3.664062 1.933593-5.066406 6.46875-3.132812 10.132812 46.078125 87.296875 156.933594 113.683594 237.09375 59.554688-1.574219 17.742187 1.765625 36.222656 10.648438 53-142.261719 77.222656-317.523438-25.917969-317.523438-189.078126 0-118.570312 96.46875-215.039062 215.039062-215.039062 77.667969 0 149.5625 42.125 187.632813 109.933594 2.027344 3.613281 6.601563 4.898437 10.210937 2.871094 3.609376-2.027344 4.894532-6.601563 2.867188-10.210938-40.71875-72.535156-117.628906-117.59375-200.710938-117.59375-127.136718 0-230.039062 102.886719-230.039062 230.039062 0 175.585938 188.476562 285.261719 340.621094 201.746094 17.398437 23.101563 45.046875 38.066406 76.128906 38.066406 52.519531 0 95.25-42.730468 95.25-95.25 0-39.660156-24.367188-73.738281-58.917969-88.046874zm-36.332031 168.296874c-41.703125 0-76.976562-32.230468-80.046875-74.523437-3.300781-46.6875 33.800781-85.976563 80.046875-85.976563 44.066406 0 80.25 35.820313 80.25 80.25 0 44.25-36 80.25-80.25 80.25zm0 0"/><path d="m462.132812 367.101562h-37.882812v-37.882812c0-4.140625-3.355469-7.5-7.5-7.5s-7.5 3.359375-7.5 7.5v37.882812h-37.882812c-4.144532 0-7.5 3.359376-7.5 7.5 0 4.140626 3.355468 7.5 7.5 7.5h37.882812v37.882813c0 4.140625 3.355469 7.5 7.5 7.5s7.5-3.359375 7.5-7.5v-37.882813h37.882812c4.144532 0 7.5-3.359374 7.5-7.5 0-4.140624-3.359374-7.5-7.5-7.5zm0 0"/></svg>