<svg height="512" viewBox="0 0 58 60" width="512" xmlns="http://www.w3.org/2000/svg"><g id="Page-1" fill="none" fill-rule="evenodd"><g id="054---Cash" fill="rgb(0,0,0)" fill-rule="nonzero"><path id="Shape" d="m24 27h10c1.6568542 0 3-1.3431458 3-3v-10h2c.8087918-.0001727 1.5378681-.487455 1.847356-1.2346909.3094878-.7472359.1384598-1.6073206-.433356-2.1793091l-10-10c-.7809997-.78076388-2.0470003-.78076388-2.828 0l-10 10c-.5718158.5719885-.7428438 1.4320732-.433356 2.1793091.3094879.7472359 1.0385642 1.2345182 1.847356 1.2346909h2v10c0 1.6568542 1.3431458 3 3 3zm-5-15 10-10 10.01 10h-3.01c-.5522847 0-1 .4477153-1 1v11c0 .5522847-.4477153 1-1 1h-10c-.5522847 0-1-.4477153-1-1v-11c0-.5522847-.4477153-1-1-1z"/><path id="Shape" d="m16 29v-13c0-.5522847-.4477153-1-1-1s-1 .4477153-1 1v13c0 .5522847.4477153 1 1 1s1-.4477153 1-1z"/><path id="Shape" d="m10 35v-13c0-.5522847-.44771525-1-1-1s-1 .4477153-1 1v13c0 .5522847.44771525 1 1 1s1-.4477153 1-1z"/><path id="Shape" d="m44 29v-13c0-.5522847-.4477153-1-1-1s-1 .4477153-1 1v13c0 .5522847.4477153 1 1 1s1-.4477153 1-1z"/><path id="Shape" d="m50 35v-13c0-.5522847-.4477153-1-1-1s-1 .4477153-1 1v13c0 .5522847.4477153 1 1 1s1-.4477153 1-1z"/><path id="Shape" d="m0 46.5v7c0 4.222 7.729 6.5 15 6.5 5.714 0 11.694-1.413 14-4.064 2.306 2.651 8.286 4.064 14 4.064 7.271 0 15-2.278 15-6.5v-7c0-4.029-7.037-6.282-14-6.481v-3.519c0-4.222-7.729-6.5-15-6.5-1.9572284-.0052476-3.9113294.1566741-5.841.484-.5442766.0944407-.9089406.6122234-.8145 1.1565.0944407.5442766.6122234.9089407 1.1565.8145 1.8166717-.3081971 3.656379-.4604188 5.499-.455 7.44 0 13 2.376 13 4.5 0 .856-.958 1.8-2.629 2.6-3.2866201 1.349823-6.8193131 1.9970235-10.371 1.9-3.5516869.0970235-7.0843799-.550177-10.371-1.9-1.671-.8-2.629-1.744-2.629-2.6 0-.9 1.089-1.921 2.913-2.725.3338613-.1394811.5663357-.44843.6078911-.8078621.0415555-.3594322-.1142907-.7132764-.4075179-.9252578s-.6780922-.2490311-1.0063732-.0968801c-2.649 1.166-4.107 2.784-4.107 4.555v3.519c-6.963.199-14 2.452-14 6.481zm15 11.5c-7.44 0-13-2.376-13-4.5v-3.645c.55436243.4059827 1.1475948.7560266 1.771 1.045 3.55474104 1.4782869 7.3802687 2.1937209 11.229 2.1 3.8511097.0950927 7.6792038-.6203753 11.236-2.1.5549662-.2621091 1.0868493-.5705344 1.59-.922h.174v3.522c0 2.124-5.56 4.5-13 4.5zm28 0c-7.44 0-13-2.376-13-4.5v-3.519h.174c.5064665.3529191 1.0416812.6626746 1.6.926 3.5543288 1.4754774 7.3787719 2.188515 11.226 2.093 3.8487313.0937209 7.674259-.6217131 11.229-2.1.6234052-.2889734 1.2166376-.6390173 1.771-1.045v3.645c0 2.124-5.56 4.5-13 4.5zm13-11.5c0 .856-.958 1.8-2.629 2.6-3.2866201 1.349823-6.8193131 1.9970235-10.371 1.9-3.0636802.0455773-6.1139155-.4142554-9.028-1.361 5.434-.792 10.028-2.885 10.028-6.139v-1.48c6.931.201 12 2.453 12 4.48zm-38.229-5.6c3.554741 1.4782869 7.3802687 2.1937209 11.229 2.1 3.8487313.0937209 7.674259-.6217131 11.229-2.1.6234052-.2889734 1.2166376-.6390173 1.771-1.045v3.645c0 2.124-5.56 4.5-13 4.5s-13-2.376-13-4.5v-3.645c.5543624.4059827 1.1475948.7560266 1.771 1.045zm-3.771 1.12v1.48c0 3.253 4.593 5.347 10.027 6.139-2.9137535.9466893-5.9636509 1.406522-9.027 1.361-3.5516869.0970235-7.08437991-.550177-10.371-1.9-1.671-.8-2.629-1.744-2.629-2.6 0-2.027 5.069-4.279 12-4.48z"/></g></g></svg>