<?xml version="1.0" encoding="UTF-8" standalone="no"?>
<!-- Creator: CorelDRAW X8 -->

<svg
   xmlns:dc="http://purl.org/dc/elements/1.1/"
   xmlns:cc="http://creativecommons.org/ns#"
   xmlns:rdf="http://www.w3.org/1999/02/22-rdf-syntax-ns#"
   xmlns:svg="http://www.w3.org/2000/svg"
   xmlns="http://www.w3.org/2000/svg"
   xmlns:sodipodi="http://sodipodi.sourceforge.net/DTD/sodipodi-0.dtd"
   xmlns:inkscape="http://www.inkscape.org/namespaces/inkscape"
   xml:space="preserve"
   width="87px"
   height="71px"
   version="1.1"
   style="shape-rendering:geometricPrecision; text-rendering:geometricPrecision; image-rendering:optimizeQuality; fill-rule:evenodd; clip-rule:evenodd"
   viewBox="0 0 87 71"
   id="svg15"
   sodipodi:docname="menuIcon.svg"
   inkscape:version="0.92.3 (2405546, 2018-03-11)"><metadata
   id="metadata19"><rdf:RDF><cc:Work
       rdf:about=""><dc:format>image/svg+xml</dc:format><dc:type
         rdf:resource="http://purl.org/dc/dcmitype/StillImage" /></cc:Work></rdf:RDF></metadata><sodipodi:namedview
   pagecolor="#ffffff"
   bordercolor="#666666"
   borderopacity="1"
   objecttolerance="10"
   gridtolerance="10"
   guidetolerance="10"
   inkscape:pageopacity="0"
   inkscape:pageshadow="2"
   inkscape:window-width="1366"
   inkscape:window-height="710"
   id="namedview17"
   showgrid="false"
   inkscape:zoom="2.908046"
   inkscape:cx="43.5"
   inkscape:cy="35.5"
   inkscape:window-x="0"
   inkscape:window-y="0"
   inkscape:window-maximized="1"
   inkscape:current-layer="svg15" />
 <defs
   id="defs4">
  <style
   type="text/css"
   id="style2">
   <![CDATA[
    .fil0 {fill:white}
   ]]>
  </style>
 </defs>
 <g
   id="Layer_x0020_1"
   style="fill:#000000">
  <metadata
   id="CorelCorpID_0Corel-Layer" />
  <g
   id="_2440612962928"
   style="fill:#000000">
   <path
   class="fil0"
   d="M 85,1 H 2 C 1,1 0,3.6505929 0,6.3011857 0,11.602371 1,14.252965 2,14.252965 h 83 c 1,0 2,-2.650594 2,-7.9517793 C 87,3.6505929 86,1 85,1 Z"
   id="path7"
   inkscape:connector-curvature="0"
   style="fill:#000000;stroke-width:1.62806416" />
   <path
   class="fil0"
   d="M 62.570573,29.217391 H 1.2799311 c 0,0 -1.03882438,2.581819 -1.03882438,5.163637 0,5.163636 1.03882438,7.745455 1.03882438,7.745455 H 62.570573 c 1.038824,0 2.077649,-2.581819 2.077649,-7.745455 0,-2.581818 -1.038825,-5.163637 -2.077649,-5.163637 z"
   id="path9"
   inkscape:connector-curvature="0"
   style="fill:#000000;stroke-width:1.63769817" />
   <path
   class="fil0"
   d="M 85,58.12253 H 2 c -1,0 -2,3.149209 -2,6.298419 0,3.149209 1,6.298419 2,6.298419 h 83 c 1,0 2,-3.14921 2,-6.298419 0,-3.14921 -1,-6.298419 -2,-6.298419 z"
   id="path11"
   inkscape:connector-curvature="0"
   style="fill:#000000;stroke-width:1.77460122" />
  </g>
 </g>
</svg>